<svg width="239" height="210" viewBox="0 0 239 210" fill="none" xmlns="http://www.w3.org/2000/svg">
<path d="M34.4751 97.9539C15.9348 70.4763 25.601 62.0127 49.6447 66.7754C73.6885 71.5381 78.2975 48.2368 61.4429 45.7088C44.5883 43.1807 37.3071 42.0974 20.1485 46.5514C-0.919848 54.9781 -6.21522 77.5289 15.9348 107.223C58.0719 151.884 98.0791 186.948 192.911 202.444C225.778 207.5 246.036 183.393 236.734 164.524C222.772 136.204 195.164 112.811 167.321 90.5719C152.995 81.3026 154.016 105.312 163.415 112.279C186.207 128.966 208.923 153.57 214.822 165.367C220.721 177.164 206.429 183.88 192.911 182.22C154.987 178.85 86.3868 152.709 34.4751 97.9539Z" fill="url(#paint0_linear_1371_962)"/>
<path d="M59.3151 210V0H136.454C145.916 0 154.453 2.2647 162.064 6.7941C169.675 11.3235 175.743 17.397 180.269 25.0147C184.794 32.6323 187.057 41.1765 187.057 50.647C187.057 60.5294 184.486 69.4853 179.343 77.5147C174.406 85.3382 167.926 91.3088 159.904 95.4265C170.806 99.5441 179.549 106.235 186.131 115.5C192.919 124.559 196.313 135.162 196.313 147.309C196.313 158.838 193.536 169.441 187.982 179.118C182.428 188.588 174.92 196.103 165.458 201.662C155.996 207.221 145.402 210 133.677 210H59.3151ZM83.9995 84.6176H131.825C140.876 84.6176 148.385 81.6323 154.35 75.6618C160.521 69.4853 163.607 62.0735 163.607 53.4265C163.607 44.7794 160.521 37.4706 154.35 31.5C148.385 25.3235 140.876 22.2353 131.825 22.2353H83.9995V84.6176ZM83.9995 187.765H133.06C140.259 187.765 146.842 185.912 152.807 182.206C158.978 178.5 163.812 173.662 167.309 167.691C171.012 161.515 172.863 154.721 172.863 147.309C172.863 139.897 171.012 133.103 167.309 126.926C163.812 120.75 159.081 115.912 153.116 112.412C147.15 108.706 140.465 106.853 133.06 106.853H83.9995V187.765Z" fill="#0E3171"/>
<path d="M207.776 94.6476C222.24 71.0507 212.415 63.7673 189.813 68.0745C165.777 72.6551 169.763 48.3388 186.606 45.9377C203.449 43.5366 202.312 43.5081 219.407 48.0856C240.375 56.6615 245.494 79.2331 223.164 108.739C180.771 153.051 140.576 187.79 45.7982 202.571C12.9524 207.379 -7.09117 183.142 2.33424 164.357C16.4806 136.163 34.5976 120.3 62.5554 98.2846C76.9252 89.129 85.3432 105.806 75.9092 112.698C53.034 129.203 30.1765 153.617 24.2005 165.361C18.2245 177.105 32.4419 183.921 45.948 182.363C82.8885 179.353 149.111 154.923 200.807 103.332C203.44 100.704 205.832 97.8197 207.776 94.6476Z" fill="url(#paint1_linear_1371_962)"/>
<path d="M179.375 77.3022C186.979 66.8056 189.017 44.7312 185.401 37.4933C181.785 30.2553 174.553 37.4933 174.553 37.4933L167.322 64.0328L179.375 77.3022Z" fill="#0E3171"/>
<path d="M60.0506 86.9531H79.3353V135.207H60.0506V86.9531Z" fill="#0E3171"/>
<path d="M179.375 123.143C130.062 82.1566 116.926 83.4766 50.4083 66.4453L58.8453 44.7312C117.153 56.1766 146.381 71.0742 192.633 111.08L179.375 123.143Z" fill="url(#paint2_linear_1371_962)"/>
<defs>
<linearGradient id="paint0_linear_1371_962" x1="120.321" y1="43.5114" x2="120.321" y2="203.126" gradientUnits="userSpaceOnUse">
<stop stop-color="#2DA9BE"/>
<stop offset="1" stop-color="#D094F2"/>
</linearGradient>
<linearGradient id="paint1_linear_1371_962" x1="119.44" y1="43.7264" x2="118.252" y2="203.79" gradientUnits="userSpaceOnUse">
<stop stop-color="#D094F2"/>
<stop offset="0.423077" stop-color="#348CD7"/>
<stop offset="1" stop-color="#27C2AA"/>
</linearGradient>
<linearGradient id="paint2_linear_1371_962" x1="121.52" y1="44.7313" x2="121.52" y2="123.143" gradientUnits="userSpaceOnUse">
<stop stop-color="#3AA7C2"/>
<stop offset="1" stop-color="#899EDC"/>
</linearGradient>
</defs>
</svg>
